<svg id="hd24" width="100%" xmlns="http://www.w3.org/2000/svg" viewBox="0 0 312.74 229"><title>Asset 1</title><g id="Layer_2" data-name="Layer 2"><g id="Layer_1-2" data-name="Layer 1"><path d="M44.43,222.94Q17,216.88,0,207.19L25,147q15.35,9.3,36.35,14.54a167.94,167.94,0,0,0,40.79,5.25q15.75,0,22-2.62t6.26-7.88q0-5.25-7.87-7.27t-25.65-4q-27.06-3.23-46-8.28a72,72,0,0,1-33.32-19.59Q3.23,102.59,3.23,75.53A61.67,61.67,0,0,1,16.16,37.16q12.92-17,38.57-27.06T116.32,0a258.53,258.53,0,0,1,49.07,4.64q24,4.65,41,13.53l-25,60.18Q152.26,62.21,117.53,62.2q-29.9,0-29.89,10.5,0,5.25,8.08,7.47t25.44,4.24q27.06,3.24,45.84,8.48a73.9,73.9,0,0,1,33.12,19.79q14.34,14.53,14.34,41.6a60.52,60.52,0,0,1-12.93,37.56q-12.93,17-38.77,27.06T100.16,229A257.77,257.77,0,0,1,44.43,222.94Z"/><path d="M267.24,138a45.5,45.5,0,1,0,45.5,45.5A45.5,45.5,0,0,0,267.24,138Zm-4.57,53.28a9.75,9.75,0,0,0,7.45,2.95,13.54,13.54,0,0,0,5.27-1V182.34H288v18.14a29.28,29.28,0,0,1-8.82,4,36.43,36.43,0,0,1-9.87,1.41A26.16,26.16,0,0,1,257,203.08a21.21,21.21,0,0,1-8.55-8,23.29,23.29,0,0,1,0-23.22,21.05,21.05,0,0,1,8.64-8,27,27,0,0,1,12.53-2.85,28.71,28.71,0,0,1,11.3,2.11,21.26,21.26,0,0,1,8.31,6.16l-9.26,8.15a12.27,12.27,0,0,0-9.62-4.72,10.16,10.16,0,0,0-7.6,2.88,10.75,10.75,0,0,0-2.81,7.84A10.87,10.87,0,0,0,262.67,191.28Z"/></g></g></svg>
